<svg baseProfile="full" height="28" version="1.1" viewBox="0 0 230 28" width="230" xmlns="http://www.w3.org/2000/svg" xmlns:ev="http://www.w3.org/2001/xml-events" xmlns:xlink="http://www.w3.org/1999/xlink"><defs /><g><path d="M10.257801899592945 27.544097693351425 0.5698778833107191 0.9497964721845307H6.040705563093623L13.411126187245591 22.30122116689281L20.81953867028494 0.9497964721845307H26.25237449118046L16.564450474898237 27.544097693351425Z M29.44369063772049 27.544097693351425V8.39620081411126H34.57259158751696V27.544097693351425ZM32.027137042062414 5.7747625508819524Q30.65943012211669 5.7747625508819524 29.76662143826323 4.957937584803256Q28.87381275440977 4.141112618724559 28.87381275440977 2.8873812754409762Q28.87381275440977 1.6336499321573932 29.76662143826323 0.8168249660786966Q30.65943012211669 0.0 32.027137042062414 0.0Q33.43283582089553 0.0 34.325644504748986 0.8168249660786966Q35.218453188602446 1.6336499321573932 35.218453188602446 2.8873812754409762Q35.218453188602446 4.141112618724559 34.325644504748986 4.957937584803256Q33.43283582089553 5.7747625508819524 32.027137042062414 5.7747625508819524Z M47.56580732700136 28.0Q44.94436906377205 28.0 43.0067842605156 27.16417910447761Q41.06919945725916 26.328358208955223 39.967435549525106 24.846675712347356Q38.865671641791046 23.364993215739485 38.713704206241516 21.5033921302578H43.80461329715061Q43.99457259158751 22.225237449118048 44.45047489823609 22.814111261872455Q44.90637720488466 23.402985074626866 45.66621438263229 23.744911804613295Q46.42605156037992 24.08683853459973 47.48982360922659 24.08683853459973Q48.51560379918589 24.08683853459973 49.16146540027137 23.80189959294437Q49.80732700135685 23.51696065128901 50.13025780189959 23.023066485753056Q50.45318860244233 22.529172320217096 50.45318860244233 21.997286295793756Q50.45318860244233 21.199457259158752 49.99728629579376 20.762550881953867Q49.54138398914518 20.325644504748983 48.66757123473541 20.059701492537314Q47.79375848032564 19.793758480325643 46.54002713704206 19.527815468113978Q45.172320217096335 19.261872455902306 43.86160108548168 18.862957937584802Q42.55088195386703 18.4640434192673 41.52510176390773 17.8561736770692Q40.499321573948436 17.2483039348711 39.89145183175034 16.298507462686565Q39.28358208955224 15.348710990502035 39.28358208955224 13.943012211668929Q39.28358208955224 12.233378561736771 40.19538670284939 10.884667571234736Q41.10719131614654 9.535956580732702 42.85481682496608 8.738127544097694Q44.60244233378562 7.9402985074626855 47.0719131614654 7.9402985074626855Q50.5291723202171 7.9402985074626855 52.5427408412483 9.49796472184532Q54.55630936227951 11.055630936227953 54.93622795115333 13.791044776119403H50.1112618724559Q49.883310719131615 12.917232021709633 49.1044776119403 12.404341926729987Q48.32564450474898 11.89145183175034 47.03392130257802 11.89145183175034Q45.66621438263229 11.89145183175034 44.944369063772044 12.385345997286297Q44.222523744911804 12.879240162822253 44.222523744911804 13.677069199457259Q44.222523744911804 14.208955223880597 44.69742198100407 14.626865671641792Q45.172320217096335 15.044776119402986 46.046132971506104 15.329715061058344Q46.91994572591587 15.614654002713705 48.17367706919946 15.880597014925373Q50.37720488466757 16.336499321573946 52.04884667571234 16.925373134328357Q53.72048846675712 17.514246947082768 54.67028493894165 18.597014925373134Q55.620081411126186 19.6797829036635 55.620081411126186 21.731343283582092Q55.620081411126186 23.554952510176392 54.63229308005427 24.979647218453188Q53.64450474898236 26.404341926729987 51.83989145183175 27.202170963364992Q50.03527815468114 28.0 47.56580732700136 28.0Z M67.09362279511532 28.0Q64.77611940298507 28.0 63.12347354138399 27.03120759837178Q61.4708276797829 26.062415196743554 60.59701492537313 24.18181818181818Q59.72320217096336 22.30122116689281 59.72320217096336 19.527815468113978V8.39620081411126H64.85210312075984V18.99592944369064Q64.85210312075984 21.313432835820898 65.82089552238806 22.491180461329716Q66.78968792401628 23.668928086838534 68.80325644504748 23.668928086838534Q70.09497964721845 23.668928086838534 71.08276797829036 23.080054274084127Q72.07055630936227 22.491180461329716 72.65943012211669 21.37042062415197Q73.2483039348711 20.249660786974218 73.2483039348711 18.616010854816825V8.39620081411126H78.3392130257802V27.544097693351425H73.8561736770692L73.438263229308 24.42876526458616Q72.60244233378562 26.062415196743554 70.96879240162822 27.03120759837178Q69.33514246947082 28.0 67.09362279511532 28.0Z M83.35413839891451 27.544097693351425V8.39620081411126H87.91316146540026L88.40705563093623 11.92944369063772Q89.09090909090908 10.675712347354139 90.13568521031206 9.80189959294437Q91.18046132971506 8.9280868385346 92.5291723202171 8.434192672998643Q93.87788331071913 7.9402985074626855 95.51153324287652 7.9402985074626855V13.373134328358208H93.76390773405699Q92.62415196743555 13.373134328358208 91.65535956580732 13.639077340569877Q90.6865671641791 13.905020352781547 89.96472184531885 14.493894165535956Q89.24287652645862 15.082767978290367 88.86295793758481 16.108548168249662Q88.48303934871099 17.134328358208954 88.48303934871099 18.69199457259159V27.544097693351425Z M105.35142469470827 28.0Q102.95793758480326 28.0 101.40027137042063 27.221166892808682Q99.84260515603799 26.442333785617368 99.10176390773405 25.131614654002714Q98.36092265943012 23.82089552238806 98.36092265943012 22.225237449118048Q98.36092265943012 20.47761194029851 99.25373134328358 19.147896879240164Q100.14654002713704 17.81818181818182 101.95115332428765 17.058344640434193Q103.75576662143826 16.298507462686565 106.49118046132972 16.298507462686565H111.24016282225237Q111.24016282225237 14.89280868385346 110.86024423337855 13.96200814111262Q110.48032564450475 13.031207598371777 109.68249660786974 12.575305291723202Q108.88466757123473 12.119402985074627 107.55495251017639 12.119402985074627Q106.1112618724559 12.119402985074627 105.1044776119403 12.746268656716417Q104.0976933514247 13.373134328358208 103.86974219810041 14.664857530529172H98.89280868385346Q99.08276797829036 12.613297150610583 100.24151967435549 11.112618724559024Q101.40027137042063 9.611940298507463 103.31886024423338 8.776119402985074Q105.23744911804613 7.9402985074626855 107.59294436906377 7.9402985074626855Q110.29036635006784 7.9402985074626855 112.26594301221166 8.852103120759837Q114.24151967435549 9.763907734056989 115.30529172320217 11.473541383989147Q116.36906377204885 13.183175033921303 116.36906377204885 15.690637720488468V27.544097693351425H112.03799185888738L111.46811397557666 24.618724559023068Q111.05020352781547 25.378561736770692 110.48032564450475 25.986431478968793Q109.91044776119404 26.594301221166894 109.15061058344641 27.05020352781547Q108.39077340569878 27.506105834464044 107.44097693351425 27.753052917232022Q106.49118046132972 28.0 105.35142469470827 28.0ZM106.56716417910448 24.048846675712348Q107.55495251017639 24.048846675712348 108.33378561736771 23.687924016282224Q109.11261872455901 23.327001356852104 109.68249660786974 22.700135685210313Q110.25237449118046 22.07327001356852 110.5753052917232 21.256445047489827Q110.89823609226595 20.439620081411128 111.01221166892809 19.489823609226594V19.451831750339213H107.09905020352781Q105.921302578019 19.451831750339213 105.18046132971506 19.736770691994572Q104.43962008141112 20.021709633649934 104.09769335142468 20.55359565807327Q103.75576662143826 21.085481682496606 103.75576662143826 21.769335142469473Q103.75576662143826 22.529172320217096 104.09769335142468 23.023066485753056Q104.43962008141112 23.51696065128901 105.0854816824966 23.78290366350068Q105.73134328358209 24.048846675712348 106.56716417910448 24.048846675712348Z M121.27001356852104 27.544097693351425V0.9497964721845307H127.38670284938942L135.51696065128903 17.55223880597015L143.57123473541384 0.9497964721845307H149.68792401628224V27.544097693351425H144.55902306648576V9.687924016282224L137.53052917232023 23.82089552238806H133.4654002713704L126.39891451831751 9.687924016282224V27.544097693351425Z M164.01085481682497 28.0Q161.123473541384 28.0 158.9009497964722 26.765264586160107Q156.6784260515604 25.530529172320218 155.4436906377205 23.30800542740841Q154.2089552238806 21.085481682496606 154.2089552238806 18.16010854816825Q154.2089552238806 15.15875169606513 155.42469470827677 12.860244233378562Q156.64043419267298 10.561736770691994 158.86295793758478 9.25101763907734Q161.0854816824966 7.9402985074626855 164.01085481682497 7.9402985074626855Q166.86024423337855 7.9402985074626855 168.9877883310719 9.194029850746269Q171.11533242876527 10.447761194029852 172.29308005427407 12.575305291723202Q173.4708276797829 14.702849389416553 173.4708276797829 17.400271370420626Q173.4708276797829 17.78018995929444 173.4708276797829 18.255088195386705Q173.4708276797829 18.72998643147897 173.39484396200814 19.223880597014926H157.8561736770692V16.108548168249662H168.30393487109905Q168.1899592944369 14.246947082767978 166.9932157394844 13.183175033921302Q165.7964721845319 12.119402985074627 164.01085481682497 12.119402985074627Q162.719131614654 12.119402985074627 161.61736770691994 12.708276797829036Q160.5156037991859 13.297150610583447 159.88873812754412 14.512890094979648Q159.2618724559023 15.728629579375848 159.2618724559023 17.59023066485753V18.69199457259159Q159.2618724559023 20.249660786974218 159.85074626865674 21.40841248303935Q160.43962008141114 22.567164179104477 161.5033921302578 23.19402985074627Q162.56716417910448 23.82089552238806 163.9728629579376 23.82089552238806Q165.37856173677068 23.82089552238806 166.30936227951153 23.21302578018996Q167.2401628222524 22.60515603799186 167.69606512890095 21.655359565807327H172.93894165535957Q172.4070556309362 23.440976933514246 171.15332428765265 24.884667571234736Q169.89959294436906 26.328358208955223 168.07598371777476 27.16417910447761Q166.25237449118046 28.0 164.01085481682497 28.0Z M186.19810040705562 28.0Q183.57666214382633 28.0 181.50610583446405 26.708276797829036Q179.43554952510175 25.416553595658073 178.25780189959295 23.137042062415198Q177.08005427408412 20.857530529172323 177.08005427408412 18.008141112618723Q177.08005427408412 15.082767978290367 178.27679782903664 12.82225237449118Q179.47354138398913 10.561736770691994 181.5820895522388 9.25101763907734Q183.69063772048847 7.9402985074626855 186.31207598371776 7.9402985074626855Q188.36363636363637 7.9402985074626855 189.92130257801898 8.700135685210311Q191.47896879240162 9.459972862957937 192.42876526458616 10.865671641791046V0.18995929443690684H197.55766621438264V27.544097693351425H192.99864314789687L192.42876526458616 24.922659430122117Q191.85888738127545 25.720488466757125 191.0040705563094 26.442333785617368Q190.1492537313433 27.16417910447761 188.97150610583446 27.582089552238806Q187.79375848032564 28.0 186.19810040705562 28.0ZM187.41383989145183 23.51696065128901Q188.93351424694708 23.51696065128901 190.0922659430122 22.814111261872455Q191.25101763907733 22.111261872455902 191.89687924016283 20.857530529172323Q192.5427408412483 19.60379918588874 192.5427408412483 17.970149253731343Q192.5427408412483 16.336499321573946 191.89687924016283 15.082767978290365Q191.25101763907733 13.829036635006783 190.0922659430122 13.12618724559023Q188.93351424694708 12.423337856173678 187.41383989145183 12.423337856173678Q185.97014925373134 12.423337856173678 184.79240162822254 13.12618724559023Q183.6146540027137 13.829036635006783 182.94979647218452 15.082767978290365Q182.28493894165535 16.336499321573946 182.28493894165535 17.932157394843962Q182.28493894165535 19.60379918588874 182.94979647218452 20.857530529172323Q183.6146540027137 22.111261872455902 184.77340569877884 22.814111261872455Q185.93215739484395 23.51696065128901 187.41383989145183 23.51696065128901Z M202.6865671641791 27.544097693351425V8.39620081411126H207.81546811397556V27.544097693351425ZM205.27001356852102 5.7747625508819524Q203.9023066485753 5.7747625508819524 203.00949796472185 4.957937584803256Q202.11668928086837 4.141112618724559 202.11668928086837 2.8873812754409762Q202.11668928086837 1.6336499321573932 203.00949796472185 0.8168249660786966Q203.9023066485753 0.0 205.27001356852102 0.0Q206.67571234735414 0.0 207.56852103120758 0.8168249660786966Q208.46132971506105 1.6336499321573932 208.46132971506105 2.8873812754409762Q208.46132971506105 4.141112618724559 207.56852103120758 4.957937584803256Q206.67571234735414 5.7747625508819524 205.27001356852102 5.7747625508819524Z M219.44097693351424 28.0Q217.04748982360923 28.0 215.4898236092266 27.221166892808682Q213.93215739484395 26.442333785617368 213.19131614654003 25.131614654002714Q212.45047489823608 23.82089552238806 212.45047489823608 22.225237449118048Q212.45047489823608 20.47761194029851 213.34328358208955 19.147896879240164Q214.236092265943 17.81818181818182 216.0407055630936 17.058344640434193Q217.84531886024422 16.298507462686565 220.58073270013568 16.298507462686565H225.32971506105832Q225.32971506105832 14.89280868385346 224.94979647218452 13.96200814111262Q224.5698778833107 13.031207598371777 223.77204884667572 12.575305291723202Q222.9742198100407 12.119402985074627 221.64450474898234 12.119402985074627Q220.20081411126188 12.119402985074627 219.19402985074626 12.746268656716417Q218.18724559023065 13.373134328358208 217.95929443690636 14.664857530529172H212.9823609226594Q213.17232021709634 12.613297150610583 214.33107191316145 11.112618724559024Q215.4898236092266 9.611940298507463 217.40841248303934 8.776119402985074Q219.3270013568521 7.9402985074626855 221.68249660786972 7.9402985074626855Q224.3799185888738 7.9402985074626855 226.35549525101763 8.852103120759837Q228.33107191316145 9.763907734056989 229.3948439620081 11.473541383989147Q230.4586160108548 13.183175033921303 230.4586160108548 15.690637720488468V27.544097693351425H226.12754409769335L225.55766621438264 24.618724559023068Q225.13975576662142 25.378561736770692 224.5698778833107 25.986431478968793Q224.0 26.594301221166894 223.2401628222524 27.05020352781547Q222.48032564450475 27.506105834464044 221.5305291723202 27.753052917232022Q220.58073270013568 28.0 219.44097693351424 28.0ZM220.65671641791045 24.048846675712348Q221.64450474898234 24.048846675712348 222.42333785617365 23.687924016282224Q223.20217096336498 23.327001356852104 223.77204884667572 22.700135685210313Q224.34192672998643 22.07327001356852 224.66485753052916 21.256445047489827Q224.9877883310719 20.439620081411128 225.10176390773404 19.489823609226594V19.451831750339213H221.18860244233377Q220.01085481682495 19.451831750339213 219.27001356852102 19.736770691994572Q218.5291723202171 20.021709633649934 218.18724559023065 20.55359565807327Q217.84531886024422 21.085481682496606 217.84531886024422 21.769335142469473Q217.84531886024422 22.529172320217096 218.18724559023065 23.023066485753056Q218.5291723202171 23.51696065128901 219.17503392130257 23.78290366350068Q219.82089552238804 24.048846675712348 220.65671641791045 24.048846675712348Z " fill="rgb(0,0,0)" transform="translate(-0.5698778833107191, 0)" /></g></svg>